<svg width="12" height="12" viewBox="0 0 12 12" fill="none" xmlns="http://www.w3.org/2000/svg">
<path fill-rule="evenodd" clip-rule="evenodd" d="M0.599976 1.80001C0.599976 1.37567 0.768546 0.968699 1.0686 0.668641C1.36866 0.368583 1.77563 0.200012 2.19998 0.200012H5.39998C5.61215 0.200012 5.81563 0.284298 5.96566 0.434327C6.11569 0.584356 6.19998 0.787839 6.19998 1.00001C6.19998 1.21219 6.11569 1.41567 5.96566 1.5657C5.81563 1.71573 5.61215 1.80001 5.39998 1.80001H2.19998V9.80001H10.2V6.60001C10.2 6.38784 10.2843 6.18436 10.4343 6.03433C10.5843 5.8843 10.7878 5.80001 11 5.80001C11.2121 5.80001 11.4156 5.8843 11.5657 6.03433C11.7157 6.18436 11.8 6.38784 11.8 6.60001V9.80001C11.8 10.2244 11.6314 10.6313 11.3313 10.9314C11.0313 11.2314 10.6243 11.4 10.2 11.4H2.19998C1.77563 11.4 1.36866 11.2314 1.0686 10.9314C0.768546 10.6313 0.599976 10.2244 0.599976 9.80001V1.80001Z" fill="white"/>
</svg>
